<?xml version="1.0" standalone="no"?><!DOCTYPE svg PUBLIC "-//W3C//DTD SVG 1.1//EN" "http://www.w3.org/Graphics/SVG/1.1/DTD/svg11.dtd"><svg t="1587387159338" class="icon" viewBox="0 0 1024 1024" version="1.1" xmlns="http://www.w3.org/2000/svg" p-id="985" xmlns:xlink="http://www.w3.org/1999/xlink" width="200" height="200"><defs><style type="text/css"></style></defs><path d="M891.35149511 467.38503301l-99.66909061-99.85550412a31.01299446 31.01299446 0 0 0-43.86931295 0 31.08755987 31.08755987 0 0 0 0 43.93145079l69.0972748 69.22155045H358.76809387c-17.15004302 0-31.00678068 13.9188755-31.00678069 31.06891852s13.85673765 31.06891852 31.00678069 31.06891852h458.14227248l-69.0972748 69.22155046a31.08755987 31.08755987 0 0 0 0 43.93145079c6.02737019 6.08950803 13.98101333 9.07212421 21.93465648 9.0721242s15.84514845-3.04475402 21.93465647-9.0721242l99.66909061-99.85550412c24.42016995-24.48230779 24.42016995-64.31266133 0-88.73283129z" p-id="986"></path><path d="M598.62014483 804.04783408c0 23.9852051-19.51128083 43.49648592-43.43434808 43.49648592H219.89002809c-23.9852051 0-43.43434809-19.51128083-43.43434809-43.49648592V219.95216592c0-23.9852051 19.51128083-43.49648592 43.43434809-43.49648592h335.29576866c23.9852051 0 43.43434809 19.51128083 43.43434808 43.49648592v105.63432297h62.0756992V219.95216592c0-58.2231533-47.34903182-105.63432297-105.57218513-105.63432295H219.89002809C161.66687478 114.31784297 114.31784297 161.72901262 114.31784297 219.95216592v584.09566816c0 58.2231533 47.34903182 105.63432297 105.57218512 105.63432295h335.29576866c58.2231533 0 105.57218512-47.41116965 105.57218512-105.63432295v-105.63432297h-62.0756992v105.63432297z" p-id="987"></path></svg>