<?xml version="1.0" standalone="no"?><!DOCTYPE svg PUBLIC "-//W3C//DTD SVG 1.1//EN" "http://www.w3.org/Graphics/SVG/1.1/DTD/svg11.dtd"><svg t="1587376251374" class="icon" viewBox="0 0 1024 1024" version="1.1" xmlns="http://www.w3.org/2000/svg" p-id="9104" xmlns:xlink="http://www.w3.org/1999/xlink" width="200" height="200"><defs><style type="text/css"></style></defs><path d="M284.444444 386.844444C241.208889 386.844444 204.8 423.253333 204.8 466.488889s36.408889 79.644444 79.644444 79.644444 79.644444-36.408889 79.644445-79.644444-36.408889-79.644444-79.644445-79.644445z m227.555556 0c-43.235556 0-79.644444 36.408889-79.644444 79.644445s36.408889 79.644444 79.644444 79.644444 79.644444-36.408889 79.644444-79.644444-36.408889-79.644444-79.644444-79.644445z m182.044444-386.844444h-364.088888C147.911111 0 0 147.911111 0 329.955556v252.586666c0 182.044444 147.911111 329.955556 329.955556 329.955556h61.44c31.857778 0 70.542222 109.226667 111.502222 109.226666 38.684444 0 77.368889-109.226667 109.226666-109.226666h79.644445c182.044444 0 329.955556-147.911111 329.955555-329.955556V329.955556C1024 147.911111 876.088889 0 694.044444 0z m298.097778 568.888889c0 168.391111-138.808889 304.924444-309.475555 304.924444h-75.093334c-31.857778 0-65.991111 102.4-102.4 102.4s-75.093333-102.4-104.675555-102.4H341.333333c-170.666667 0-309.475556-136.533333-309.475555-304.924444V336.782222C31.857778 168.391111 170.666667 31.857778 341.333333 31.857778h341.333334c170.666667 0 309.475556 136.533333 309.475555 304.924444V568.888889z m-252.586666-182.044445c-43.235556 0-79.644444 36.408889-79.644445 79.644445s36.408889 79.644444 79.644445 79.644444 79.644444-36.408889 79.644444-79.644444-36.408889-79.644444-79.644444-79.644445z" fill="#333333" p-id="9105"></path></svg>